<?xml version="1.0" encoding="UTF-8"?> <!-- Generator: Adobe Illustrator 23.0.1, SVG Export Plug-In . SVG Version: 6.00 Build 0) --> <svg xmlns="http://www.w3.org/2000/svg" xmlns:xlink="http://www.w3.org/1999/xlink" id="Laag_1" x="0px" y="0px" viewBox="0 0 425.2 141.73" style="enable-background:new 0 0 425.2 141.73;" xml:space="preserve"> <style type="text/css"> .st0{fill:#724A90;} .st1{fill:#55326A;} .st2{fill:#FAB51D;} .st3{fill:#2D2B2A;} </style> <g> <path class="st0" d="M128.96,81.59c-7.18,14.22-30.29-3.19-34.99-8.9c-0.44-0.53-0.37-1.31,0.15-1.76 c2.78-2.39,11.63-10.02,16.29-14.04c0.93-0.8,0.29-2.31-0.93-2.21l-21.64,1.8c-0.54,0.05-1.06-0.26-1.27-0.77l-1.54-2.96 c-0.32-0.77-1.29-1.02-1.94-0.5c-1.58,1.27-3.3,2.03-5.49,2.03c-1.55,0-2.71-0.38-3.99-1.05c-0.73-0.38-1.62,0.02-1.81,0.82 l-1,2.97c-0.12,0.53-0.58,0.92-1.12,0.97L53.6,59.32c-0.74,0.06-1.27,0.75-1.14,1.48c0.25,1.43,0.6,2.96,1.06,4.58 c0.09,0.3,0.29,0.56,0.56,0.73l11.98,7.27c0.47,0.28,0.7,0.83,0.57,1.37l-2.5,10.63c-0.08,0.36-0.01,0.74,0.22,1.04 c1.23,1.64,2.58,3.31,4.05,5.01c0.45,0.52,1.25,0.58,1.77,0.13l9.96-8.58c0.42-0.36,1.04-0.41,1.5-0.1 c30.06,19.45,48.87,7.45,48.3-1.09C129.89,81.26,129.19,81.13,128.96,81.59"></path> <path class="st0" d="M84.01,45.75c0,3.46-2.81,6.27-6.27,6.27c-3.46,0-6.26-2.81-6.26-6.27c0-3.46,2.81-6.26,6.26-6.26 C81.21,39.48,84.01,42.29,84.01,45.75"></path> <path class="st1" d="M128.88,85.77c0.77-1.33,1.13-2.7,1.05-4c-0.03-0.52-0.74-0.66-0.97-0.19c-3.68,7.28-11.52,6.27-18.93,2.79 C116.62,88.83,124.04,91.23,128.88,85.77"></path> <path class="st0" d="M46.61,52.39c-0.7,5-1.82,27.66,29.45,53.12c0.33,0.27,0.02,0.78-0.37,0.62 c-11.11-4.72-56.92-26.48-29.65-54.02C46.27,51.88,46.66,52.07,46.61,52.39"></path> <path class="st2" d="M126.9,75.39c-4.31-5.65-9.76-11.16-14.83-15.33c-0.23-0.19-0.56-0.17-0.78,0.03l-2.04,1.91 c-0.25,0.24-0.25,0.64,0.01,0.87c8.01,7.31,12.74,14.45,14.47,17.3c0.44,0.72,1.45,0.81,2.02,0.18 C127.91,77.91,126.9,75.39,126.9,75.39"></path> <path class="st2" d="M87.22,45.51c0.02,0.9-0.08,1.66-0.43,2.55c-0.08,0.2,0.01,0.43,0.2,0.52c2.22,1.07,6.04,2.94,8,4.05 c0.14,0.08,0.29,0.11,0.45,0.1l4.72-0.26c0.23-0.01,0.31-0.32,0.11-0.44c-4.38-2.62-8.94-5.01-12.74-6.73 C87.38,45.23,87.21,45.35,87.22,45.51"></path> <path class="st2" d="M71.15,39.25c0,0-67.41-18.76-37.79,28.41c0.36,0.58,1.26,0.35,1.3-0.33c0.44-7.18,3.83-28.68,34.68-25.1 c0.01,0,0.06,0.01,0.12,0.02c0.25,0.03,0.5-0.11,0.58-0.35c0.29-0.81,0.78-1.45,1.33-2.05c0.18-0.2,0.09-0.52-0.17-0.58 L71.15,39.25z"></path> <path class="st1" d="M46.42,57.7c-0.12-2.45,0.05-4.27,0.19-5.31c0.04-0.32-0.34-0.51-0.57-0.28C37.09,61.16,36.02,69.58,39,76.97 C38.35,71,40.35,64.52,46.42,57.7"></path> <path class="st3" d="M167.08,63.25h-12.51c-1.05,0-1.91-0.85-1.91-1.91l11.13-16.87h-8.59c-1.21,0-2.2-0.98-2.2-2.19h11.85 c1.05,0,1.91,0.85,1.91,1.91l-10.73,16.24c-0.18,0.26,0.01,0.61,0.33,0.61h8.5C166.09,61.04,167.08,62.03,167.08,63.25"></path> <path class="st3" d="M184.35,55.38c0,2.56-0.65,4.57-1.94,6c-1.29,1.44-3.08,2.16-5.35,2.16c-1.41,0-2.65-0.33-3.74-0.99 s-1.93-1.61-2.52-2.84c-0.59-1.23-0.89-2.68-0.89-4.33c0-2.56,0.64-4.56,1.92-5.99c1.28-1.43,3.06-2.14,5.34-2.14 c2.2,0,3.95,0.73,5.24,2.19C183.7,50.9,184.35,52.88,184.35,55.38 M172.37,55.38c0,2.01,0.4,3.54,1.2,4.59 c0.8,1.05,1.99,1.58,3.54,1.58s2.74-0.52,3.55-1.57c0.81-1.05,1.21-2.58,1.21-4.6c0-2-0.4-3.52-1.21-4.56 c-0.81-1.04-2-1.56-3.58-1.56c-1.56,0-2.74,0.51-3.53,1.54C172.77,51.82,172.37,53.35,172.37,55.38"></path> <path class="st3" d="M195.7,47.24c0.01,0,0.01,0,0.02,0c0.99,0,1.75,0.89,1.6,1.88l-0.08,0.51c-0.65-0.14-1.22-0.22-1.72-0.22 c-1.27,0-2.36,0.52-3.26,1.55c-0.9,1.03-1.36,2.32-1.36,3.86v6.06c0,1.31-1.07,2.38-2.38,2.38V47.53h1.97l0.27,2.91h0.11 c0.58-1.02,1.29-1.81,2.11-2.37C193.81,47.52,194.72,47.24,195.7,47.24"></path> <path class="st3" d="M213.39,47.53L213.39,47.53c0,0.86-0.64,1.58-1.5,1.68l-1.42,0.17c0.27,0.33,0.51,0.77,0.72,1.31 c0.21,0.54,0.32,1.15,0.32,1.83c0,1.54-0.53,2.77-1.58,3.69c-1.05,0.92-2.5,1.38-4.33,1.38c-0.47,0-0.91-0.04-1.32-0.11 c-1.01,0.53-1.52,1.21-1.52,2.02c0,0.43,0.18,0.75,0.53,0.95s0.96,0.31,1.82,0.31h2.78c1.7,0,3.01,0.36,3.92,1.08 c0.91,0.72,1.37,1.76,1.37,3.13c0,1.74-0.7,3.07-2.09,3.98c-1.4,0.91-3.43,1.37-6.11,1.37c-2.06,0-3.64-0.38-4.76-1.15 c-1.12-0.77-1.67-1.85-1.67-3.24c0-0.96,0.31-1.78,0.92-2.48c0.61-0.7,1.47-1.17,2.58-1.42c-0.4-0.18-0.74-0.46-1.01-0.85 c-0.27-0.38-0.41-0.83-0.41-1.33c0-0.57,0.15-1.08,0.46-1.51c0.31-0.43,0.79-0.85,1.45-1.25c-0.81-0.33-1.48-0.9-1.99-1.71 c-0.51-0.8-0.77-1.72-0.77-2.75c0-1.72,0.52-3.05,1.55-3.98c1.03-0.93,2.5-1.4,4.39-1.4c0.82,0,1.56,0.1,2.22,0.29H213.39z M200.85,65.89c0,0.85,0.36,1.5,1.08,1.94c0.72,0.44,1.75,0.66,3.08,0.66c2,0,3.48-0.3,4.44-0.9c0.96-0.6,1.44-1.41,1.44-2.43 c0-0.85-0.26-1.44-0.79-1.77s-1.52-0.5-2.97-0.5h-2.86c-1.08,0-1.92,0.26-2.52,0.78C201.15,64.19,200.85,64.93,200.85,65.89 M202.14,52.56c0,1.1,0.31,1.93,0.93,2.5c0.62,0.57,1.49,0.85,2.6,0.85c2.32,0,3.49-1.13,3.49-3.39c0-2.36-1.18-3.54-3.53-3.54 c-1.12,0-1.98,0.3-2.58,0.9C202.44,50.48,202.14,51.38,202.14,52.56"></path> <path class="st3" d="M230.19,55.38c0,2.56-0.65,4.57-1.94,6c-1.29,1.44-3.08,2.16-5.35,2.16c-1.41,0-2.65-0.33-3.74-0.99 s-1.93-1.61-2.52-2.84c-0.59-1.23-0.89-2.68-0.89-4.33c0-2.56,0.64-4.56,1.92-5.99c1.28-1.43,3.06-2.14,5.34-2.14 c2.2,0,3.95,0.73,5.24,2.19C229.54,50.9,230.19,52.88,230.19,55.38 M218.21,55.38c0,2.01,0.4,3.54,1.2,4.59 c0.8,1.05,1.99,1.58,3.54,1.58s2.74-0.52,3.55-1.57c0.81-1.05,1.21-2.58,1.21-4.6c0-2-0.4-3.52-1.21-4.56 c-0.81-1.04-2-1.56-3.58-1.56c-1.56,0-2.74,0.51-3.53,1.54C218.61,51.82,218.21,53.35,218.21,55.38"></path> <path class="st3" d="M247.51,63.25c-1.32,0-2.38-1.07-2.38-2.38v-7.79c0-1.28-0.29-2.24-0.88-2.87c-0.58-0.63-1.5-0.95-2.74-0.95 c-1.65,0-2.85,0.44-3.62,1.33c-0.76,0.89-1.15,2.36-1.15,4.4v8.25h-2.38V47.53c1.12,0,2.08,0.8,2.28,1.91l0.04,0.24h0.12 c0.49-0.77,1.17-1.38,2.05-1.8c0.88-0.43,1.86-0.64,2.94-0.64c1.89,0,3.32,0.46,4.27,1.37c0.96,0.91,1.44,2.38,1.44,4.38V63.25z"></path> <path class="st3" d="M263.11,61.14h-0.13c-1.1,1.6-2.74,2.4-4.93,2.4c-2.06,0-3.66-0.7-4.8-2.11c-1.14-1.41-1.71-3.4-1.71-6 c0-2.59,0.57-4.6,1.72-6.04c1.15-1.43,2.74-2.15,4.79-2.15c2.13,0,3.77,0.77,4.91,2.32h0.19l-0.1-1.13l-0.06-1.1v-4.02 c0-1.31,1.07-2.38,2.38-2.38v20.39c0,1.07-0.87,1.94-1.94,1.94L263.11,61.14z M258.34,61.55c1.63,0,2.8-0.44,3.54-1.33 c0.73-0.89,1.1-2.31,1.1-4.28v-0.5c0-2.23-0.37-3.82-1.11-4.77c-0.74-0.95-1.92-1.43-3.55-1.43c-1.4,0-2.46,0.54-3.21,1.63 c-0.74,1.09-1.11,2.62-1.11,4.6c0,2.01,0.37,3.53,1.1,4.55C255.84,61.03,256.92,61.55,258.34,61.55"></path> <path class="st3" d="M277.05,63.54c-2.33,0-4.16-0.71-5.5-2.12c-1.34-1.42-2.01-3.38-2.01-5.9c0-2.54,0.62-4.55,1.87-6.04 c1.25-1.49,2.92-2.24,5.03-2.24c1.97,0,3.53,0.65,4.68,1.94c1.15,1.3,1.72,3.01,1.72,5.13v1.51H272c0.05,1.85,0.51,3.25,1.4,4.2 c0.89,0.96,2.13,1.44,3.74,1.44c1.05,0,2.09-0.14,3.13-0.41c0.96-0.25,1.89,0.48,1.89,1.47c-0.84,0.36-1.64,0.62-2.39,0.78 C279.02,63.46,278.11,63.54,277.05,63.54 M276.41,49.24c-1.26,0-2.27,0.41-3.02,1.23c-0.75,0.82-1.19,1.96-1.33,3.42h8.22 c0-1.5-0.34-2.65-1.01-3.45C278.61,49.63,277.65,49.24,276.41,49.24"></path> <path class="st3" d="M294.07,47.24c0.7,0,1.32,0.06,1.88,0.17l-0.33,2.21c-0.65-0.14-1.22-0.22-1.72-0.22 c-1.27,0-2.36,0.52-3.26,1.55c-0.9,1.03-1.36,2.32-1.36,3.86v8.44c-1.32,0-2.38-1.07-2.38-2.38V47.53c1.11,0,2.04,0.85,2.15,1.96 l0.09,0.96h0.11c0.58-1.02,1.29-1.81,2.11-2.37C292.18,47.52,293.08,47.24,294.07,47.24"></path> <path class="st3" d="M312.03,63.25c-1.32,0-2.38-1.07-2.38-2.38v-7.79c0-1.28-0.29-2.24-0.88-2.87c-0.58-0.63-1.5-0.95-2.74-0.95 c-1.65,0-2.85,0.44-3.62,1.33c-0.77,0.89-1.15,2.36-1.15,4.4v8.25h-2.38V47.53c1.12,0,2.08,0.8,2.28,1.91l0.04,0.24h0.12 c0.49-0.77,1.17-1.38,2.05-1.8c0.88-0.43,1.86-0.64,2.94-0.64c1.89,0,3.32,0.46,4.27,1.37c0.96,0.91,1.44,2.38,1.44,4.38V63.25z"></path> <path class="st3" d="M323.57,63.54c-2.33,0-4.16-0.71-5.5-2.12c-1.34-1.42-2.02-3.38-2.02-5.9c0-2.54,0.62-4.55,1.87-6.04 c1.25-1.49,2.92-2.24,5.03-2.24c1.97,0,3.53,0.65,4.68,1.94c1.15,1.3,1.72,3.01,1.72,5.13v1.51h-10.83c0.05,1.85,0.51,3.25,1.4,4.2 c0.88,0.96,2.13,1.44,3.74,1.44c1.05,0,2.09-0.14,3.13-0.41c0.96-0.25,1.89,0.48,1.89,1.47c-0.84,0.36-1.64,0.62-2.39,0.78 C325.53,63.46,324.63,63.54,323.57,63.54 M322.92,49.24c-1.26,0-2.27,0.41-3.02,1.23c-0.75,0.82-1.19,1.96-1.33,3.42h8.22 c0-1.5-0.34-2.65-1.01-3.45C325.12,49.63,324.16,49.24,322.92,49.24"></path> <path class="st3" d="M355.83,63.25c-1.32,0-2.38-1.07-2.38-2.38v-7.85c0-1.25-0.27-2.19-0.8-2.82c-0.54-0.63-1.37-0.94-2.5-0.94 c-1.48,0-2.58,0.43-3.29,1.28s-1.06,2.16-1.06,3.93v8.78c-1.32,0-2.38-1.07-2.38-2.38v-7.85c0-1.25-0.27-2.19-0.8-2.82 c-0.54-0.63-1.37-0.94-2.51-0.94c-1.49,0-2.59,0.45-3.28,1.34c-0.69,0.89-1.04,2.36-1.04,4.4v8.25h-2.38V47.53 c1.12,0,2.08,0.8,2.28,1.91l0.04,0.24h0.11c0.45-0.76,1.08-1.36,1.9-1.79c0.82-0.43,1.73-0.65,2.75-0.65 c2.46,0,4.07,0.89,4.82,2.67h0.12c0.47-0.82,1.15-1.47,2.04-1.95c0.89-0.48,1.9-0.72,3.04-0.72c1.78,0,3.11,0.46,4,1.37 c0.89,0.91,1.33,2.38,1.33,4.38V63.25z"></path> <path class="st3" d="M367.38,63.54c-2.33,0-4.16-0.71-5.5-2.12c-1.34-1.42-2.02-3.38-2.02-5.9c0-2.54,0.62-4.55,1.87-6.04 c1.25-1.49,2.92-2.24,5.03-2.24c1.97,0,3.53,0.65,4.68,1.94c1.15,1.3,1.72,3.01,1.72,5.13v1.51h-10.83c0.05,1.85,0.52,3.25,1.4,4.2 c0.88,0.96,2.13,1.44,3.74,1.44c1.05,0,2.09-0.14,3.13-0.41c0.96-0.25,1.89,0.48,1.89,1.47c-0.84,0.36-1.64,0.62-2.39,0.78 C369.35,63.46,368.44,63.54,367.38,63.54 M366.74,49.24c-1.26,0-2.27,0.41-3.02,1.23c-0.75,0.82-1.19,1.96-1.33,3.42h8.22 c0-1.5-0.34-2.65-1.01-3.45C368.94,49.63,367.98,49.24,366.74,49.24"></path> <path class="st3" d="M384.4,47.24c0.7,0,1.32,0.06,1.88,0.17l-0.33,2.21c-0.65-0.14-1.23-0.22-1.72-0.22 c-1.27,0-2.36,0.52-3.26,1.55c-0.9,1.03-1.36,2.32-1.36,3.86v8.44c-1.32,0-2.38-1.07-2.38-2.38V47.53c1.11,0,2.04,0.85,2.15,1.96 l0.09,0.96h0.11c0.58-1.02,1.29-1.81,2.11-2.37S383.41,47.24,384.4,47.24"></path> <path class="st3" d="M399.36,58.96c0,1.46-0.55,2.59-1.64,3.39c-1.09,0.79-2.62,1.19-4.59,1.19c-2.08,0-3.71-0.33-4.88-0.99 c0-1.01,0.97-1.73,1.94-1.44c0.16,0.05,0.33,0.09,0.49,0.14c0.87,0.22,1.7,0.33,2.5,0.33c1.24,0,2.2-0.2,2.87-0.59 c0.67-0.4,1-1,1-1.82c0-0.61-0.26-1.14-0.8-1.57s-1.57-0.95-3.11-1.54c-1.46-0.54-2.5-1.02-3.12-1.43 c-0.62-0.41-1.08-0.87-1.38-1.39c-0.3-0.52-0.45-1.13-0.45-1.85c0-1.28,0.52-2.29,1.56-3.03c1.04-0.74,2.47-1.11,4.29-1.11 c1.69,0,3.35,0.35,4.96,1.03l-0.27,0.61c-0.32,0.72-1.13,1.09-1.88,0.85c-1.07-0.33-2.07-0.5-2.99-0.5c-1.13,0-1.98,0.18-2.55,0.53 c-0.57,0.35-0.86,0.84-0.86,1.46c0,0.42,0.11,0.78,0.32,1.08c0.22,0.3,0.56,0.58,1.04,0.85c0.48,0.27,1.4,0.66,2.76,1.16 c1.86,0.68,3.12,1.36,3.78,2.05C399.04,57.06,399.36,57.92,399.36,58.96"></path> <path class="st0" d="M159.03,95.25L159.03,95.25V75.36h-5.52c-0.77,0-1.4-0.63-1.4-1.4h15.33v1.4h-6.92v18.39 C160.53,94.58,159.85,95.25,159.03,95.25"></path> <path class="st0" d="M182.89,95.25l-3.47-10.59c-0.22-0.72-0.51-1.77-0.86-3.16h-0.09l-0.31,1.08l-0.65,2.11l-3.07,9.2 c-0.27,0.81-1.03,1.35-1.88,1.35l-4.53-15.83h1.54l2.53,9.17c0.59,2.27,0.98,3.94,1.17,5.01h0.09c0.57-2.27,0.99-3.78,1.25-4.53 l2.84-8.41c0.25-0.74,0.95-1.24,1.73-1.24l3.1,9.62c0.7,2.28,1.13,3.79,1.28,4.53h0.09c0.08-0.63,0.47-2.32,1.17-5.07l2.04-7.68 c0.22-0.83,0.97-1.41,1.83-1.41l-3.9,14.37C184.57,94.65,183.79,95.25,182.89,95.25"></path> <path class="st0" d="M198.2,95.54c-2.3,0-4.09-0.71-5.38-2.13s-1.93-3.4-1.93-5.96c0-2.52,0.62-4.54,1.86-6.07 c1.24-1.52,2.92-2.28,5.02-2.28c1.86,0,3.33,0.65,4.41,1.95c1.08,1.3,1.62,3.07,1.62,5.3v1.17h-11.4c0.02,2.17,0.53,3.83,1.52,4.98 c0.99,1.15,2.42,1.72,4.27,1.72c0.9,0,1.7-0.06,2.38-0.19c0.4-0.07,0.87-0.2,1.4-0.37c0.59-0.2,1.2,0.25,1.2,0.87 c-0.89,0.39-1.72,0.65-2.48,0.79C199.94,95.47,199.11,95.54,198.2,95.54 M197.77,80.4c-1.52,0-2.75,0.5-3.67,1.51 c-0.92,1-1.46,2.45-1.62,4.35h9.79c0-1.83-0.4-3.27-1.19-4.3C200.28,80.91,199.18,80.4,197.77,80.4"></path> <path class="st0" d="M220.63,95.25c-0.79,0-1.43-0.64-1.43-1.43v-8.84c0-1.59-0.34-2.75-1.01-3.47c-0.67-0.72-1.71-1.08-3.12-1.08 c-1.89,0-3.28,0.48-4.16,1.43c-0.88,0.96-1.32,2.51-1.32,4.65v8.74h-1.44V79.42c0.7,0,1.29,0.52,1.38,1.21l0.12,0.96h0.09 c1.03-1.65,2.86-2.48,5.49-2.48c3.59,0,5.39,1.93,5.39,5.78V95.25z"></path> <path class="st0" d="M229.94,94.26c0.91,0,1.71-0.08,2.39-0.23c0,0.73-0.54,1.35-1.26,1.45c-0.36,0.05-0.75,0.07-1.15,0.07 c-1.4,0-2.43-0.37-3.09-1.12c-0.67-0.75-1-1.92-1-3.52V80.67h-2.34v-0.84l1.57-0.44c0.48-0.13,0.84-0.52,0.94-1.01l0.57-2.79h0.74 v3.83h3.39c0.69,0,1.25,0.56,1.25,1.25h-3.92c-0.4,0-0.73,0.33-0.73,0.73v9.29c0,1.21,0.21,2.11,0.64,2.69 C228.36,93.97,229.03,94.26,229.94,94.26"></path> <path class="st0" d="M242.14,95.54c-2.3,0-4.09-0.71-5.38-2.13s-1.93-3.4-1.93-5.96c0-2.52,0.62-4.54,1.86-6.07 c1.24-1.52,2.92-2.28,5.02-2.28c1.86,0,3.33,0.65,4.41,1.95c1.08,1.3,1.62,3.07,1.62,5.3v1.17h-11.4c0.02,2.17,0.53,3.83,1.52,4.98 c0.99,1.15,2.42,1.72,4.27,1.72c0.9,0,1.7-0.06,2.38-0.19c0.4-0.07,0.87-0.2,1.4-0.37c0.59-0.2,1.2,0.25,1.2,0.87 c-0.89,0.39-1.72,0.65-2.48,0.79C243.89,95.47,243.05,95.54,242.14,95.54 M241.72,80.4c-1.52,0-2.75,0.5-3.67,1.51 c-0.92,1-1.46,2.45-1.62,4.35h9.79c0-1.83-0.4-3.27-1.19-4.3C244.23,80.91,243.13,80.4,241.72,80.4"></path> </g> </svg> 